<svg xmlns="http://www.w3.org/2000/svg" xmlns:xlink="http://www.w3.org/1999/xlink" width="1600" height="1000" viewBox="0 0 1600 1000" role="img"><title>circle-rhythm-light</title><defs></defs><rect x="0" y="0" width="1600" height="1000" fill="#F8F9FA" stroke="none" stroke-width="1"/><circle cx="80" cy="68" r="35" fill="none" stroke="#D2D6D9" stroke-width="1.5"/><circle cx="224" cy="68" r="35" fill="none" stroke="#D2D6D9" stroke-width="1.5"/><circle cx="368" cy="68" r="35" fill="none" stroke="#D2D6D9" stroke-width="1.5"/><circle cx="512" cy="68" r="35" fill="none" stroke="#D2D6D9" stroke-width="1.5"/><circle cx="656" cy="68" r="35" fill="none" stroke="#D2D6D9" stroke-width="1.5"/><circle cx="800" cy="68" r="35" fill="none" stroke="#D2D6D9" stroke-width="1.5"/><circle cx="944" cy="68" r="35" fill="none" stroke="#D2D6D9" stroke-width="1.5"/><circle cx="1088" cy="68" r="35" fill="none" stroke="#D2D6D9" stroke-width="1.5"/><circle cx="1232" cy="68" r="35" fill="none" stroke="#D2D6D9" stroke-width="1.5"/><circle cx="1376" cy="68" r="35" fill="none" stroke="#D2D6D9" stroke-width="1.5"/><circle cx="1520" cy="68" r="35" fill="none" stroke="#D2D6D9" stroke-width="1.5"/><circle cx="80" cy="212" r="35" fill="none" stroke="#D2D6D9" stroke-width="1.5"/><circle cx="224" cy="212" r="35" fill="none" stroke="#D2D6D9" stroke-width="1.5"/><circle cx="368" cy="212" r="35" fill="none" stroke="#D2D6D9" stroke-width="1.5"/><circle cx="512" cy="212" r="35" fill="none" stroke="#D2D6D9" stroke-width="1.5"/><circle cx="656" cy="212" r="35" fill="none" stroke="#D2D6D9" stroke-width="1.5"/><circle cx="800" cy="212" r="35" fill="none" stroke="#D2D6D9" stroke-width="1.5"/><circle cx="944" cy="212" r="35" fill="none" stroke="#D2D6D9" stroke-width="1.5"/><circle cx="1088" cy="212" r="35" fill="none" stroke="#D2D6D9" stroke-width="1.5"/><circle cx="1232" cy="212" r="35" fill="none" stroke="#D2D6D9" stroke-width="1.5"/><circle cx="1376" cy="212" r="35" fill="none" stroke="#D2D6D9" stroke-width="1.5"/><circle cx="1520" cy="212" r="35" fill="none" stroke="#D2D6D9" stroke-width="1.5"/><circle cx="80" cy="356" r="35" fill="none" stroke="#D2D6D9" stroke-width="1.5"/><circle cx="224" cy="356" r="35" fill="none" stroke="#D2D6D9" stroke-width="1.5"/><circle cx="368" cy="356" r="35" fill="none" stroke="#D2D6D9" stroke-width="1.5"/><circle cx="512" cy="356" r="35" fill="none" stroke="#D2D6D9" stroke-width="1.5"/><circle cx="656" cy="356" r="35" fill="none" stroke="#D2D6D9" stroke-width="1.5"/><circle cx="800" cy="356" r="35" fill="none" stroke="#D2D6D9" stroke-width="1.5"/><circle cx="944" cy="356" r="35" fill="none" stroke="#D2D6D9" stroke-width="1.5"/><circle cx="1088" cy="356" r="35" fill="none" stroke="#D2D6D9" stroke-width="1.5"/><circle cx="1232" cy="356" r="35" fill="none" stroke="#D2D6D9" stroke-width="1.5"/><circle cx="1376" cy="356" r="35" fill="none" stroke="#D2D6D9" stroke-width="1.5"/><circle cx="1520" cy="356" r="35" fill="none" stroke="#D2D6D9" stroke-width="1.5"/><circle cx="80" cy="500" r="35" fill="none" stroke="#D2D6D9" stroke-width="1.5"/><circle cx="224" cy="500" r="35" fill="none" stroke="#D2D6D9" stroke-width="1.5"/><circle cx="368" cy="500" r="35" fill="none" stroke="#D2D6D9" stroke-width="1.5"/><circle cx="512" cy="500" r="35" fill="none" stroke="#D2D6D9" stroke-width="1.5"/><circle cx="656" cy="500" r="35" fill="none" stroke="#D2D6D9" stroke-width="1.5"/><circle cx="800" cy="500" r="35" fill="none" stroke="#F56169" stroke-width="1.5"/><circle cx="944" cy="500" r="35" fill="none" stroke="#D2D6D9" stroke-width="1.5"/><circle cx="1088" cy="500" r="35" fill="none" stroke="#D2D6D9" stroke-width="1.5"/><circle cx="1232" cy="500" r="35" fill="none" stroke="#D2D6D9" stroke-width="1.5"/><circle cx="1376" cy="500" r="35" fill="none" stroke="#D2D6D9" stroke-width="1.5"/><circle cx="1520" cy="500" r="35" fill="none" stroke="#D2D6D9" stroke-width="1.5"/><circle cx="80" cy="644" r="35" fill="none" stroke="#D2D6D9" stroke-width="1.5"/><circle cx="224" cy="644" r="35" fill="none" stroke="#D2D6D9" stroke-width="1.5"/><circle cx="368" cy="644" r="35" fill="none" stroke="#D2D6D9" stroke-width="1.5"/><circle cx="512" cy="644" r="35" fill="none" stroke="#D2D6D9" stroke-width="1.5"/><circle cx="656" cy="644" r="35" fill="none" stroke="#D2D6D9" stroke-width="1.5"/><circle cx="800" cy="644" r="35" fill="none" stroke="#D2D6D9" stroke-width="1.5"/><circle cx="944" cy="644" r="35" fill="none" stroke="#D2D6D9" stroke-width="1.5"/><circle cx="1088" cy="644" r="35" fill="none" stroke="#D2D6D9" stroke-width="1.5"/><circle cx="1232" cy="644" r="35" fill="none" stroke="#D2D6D9" stroke-width="1.5"/><circle cx="1376" cy="644" r="35" fill="none" stroke="#D2D6D9" stroke-width="1.5"/><circle cx="1520" cy="644" r="35" fill="none" stroke="#D2D6D9" stroke-width="1.5"/><circle cx="80" cy="788" r="35" fill="none" stroke="#D2D6D9" stroke-width="1.5"/><circle cx="224" cy="788" r="35" fill="none" stroke="#D2D6D9" stroke-width="1.5"/><circle cx="368" cy="788" r="35" fill="none" stroke="#D2D6D9" stroke-width="1.5"/><circle cx="512" cy="788" r="35" fill="none" stroke="#D2D6D9" stroke-width="1.5"/><circle cx="656" cy="788" r="35" fill="none" stroke="#D2D6D9" stroke-width="1.5"/><circle cx="800" cy="788" r="35" fill="none" stroke="#D2D6D9" stroke-width="1.5"/><circle cx="944" cy="788" r="35" fill="none" stroke="#D2D6D9" stroke-width="1.5"/><circle cx="1088" cy="788" r="35" fill="none" stroke="#D2D6D9" stroke-width="1.5"/><circle cx="1232" cy="788" r="35" fill="none" stroke="#D2D6D9" stroke-width="1.5"/><circle cx="1376" cy="788" r="35" fill="none" stroke="#D2D6D9" stroke-width="1.5"/><circle cx="1520" cy="788" r="35" fill="none" stroke="#D2D6D9" stroke-width="1.5"/><circle cx="80" cy="932" r="35" fill="none" stroke="#D2D6D9" stroke-width="1.5"/><circle cx="224" cy="932" r="35" fill="none" stroke="#D2D6D9" stroke-width="1.5"/><circle cx="368" cy="932" r="35" fill="none" stroke="#D2D6D9" stroke-width="1.5"/><circle cx="512" cy="932" r="35" fill="none" stroke="#D2D6D9" stroke-width="1.5"/><circle cx="656" cy="932" r="35" fill="none" stroke="#D2D6D9" stroke-width="1.5"/><circle cx="800" cy="932" r="35" fill="none" stroke="#D2D6D9" stroke-width="1.5"/><circle cx="944" cy="932" r="35" fill="none" stroke="#D2D6D9" stroke-width="1.5"/><circle cx="1088" cy="932" r="35" fill="none" stroke="#D2D6D9" stroke-width="1.5"/><circle cx="1232" cy="932" r="35" fill="none" stroke="#D2D6D9" stroke-width="1.5"/><circle cx="1376" cy="932" r="35" fill="none" stroke="#D2D6D9" stroke-width="1.5"/><circle cx="1520" cy="932" r="35" fill="none" stroke="#D2D6D9" stroke-width="1.5"/></svg>